<svg width="131" height="19" viewBox="0 0 131 19" xmlns="http://www.w3.org/2000/svg">
<path d="M24.5657 0.907959V4.79576H15.0588V18.3823H9.54765V4.79576H0.0407715V0.907959H24.5657Z" />
<path d="M44.9403 0.907959C46.1383 0.907959 47.2287 1.19216 48.2127 1.75919C49.1955 2.3276 49.9808 3.08777 50.566 4.0411C51.1512 4.99442 51.4438 6.0526 51.4438 7.21286C51.4438 8.37451 51.1512 9.43407 50.566 10.3915C49.9808 11.349 49.1955 12.1106 48.2127 12.6734C47.2287 13.2363 46.1383 13.5178 44.9403 13.5178H32.6702V18.381H27.1729V0.907959H27.4144H32.6702H44.9403ZM43.4372 9.64377C44.126 9.64377 44.7153 9.4051 45.2067 8.92912C45.698 8.45315 45.9437 7.8806 45.9437 7.21286C45.9437 6.54512 45.698 5.97396 45.2067 5.4966C44.7153 5.02063 44.1246 4.78196 43.4372 4.78196H32.6688V9.64515H43.4372V9.64377Z" />
<path d="M68.2851 0.907959L77.9535 18.381H71.8391L69.9483 14.7401H58.6043L56.7134 18.381H50.5991L60.2675 0.907959H68.2851ZM68.1098 11.1917L64.2742 3.75551L60.4262 11.1917H68.1098Z" />
<path d="M91.1855 14.9359C91.5789 14.9359 92.1089 14.9165 92.7741 14.8779C93.4394 14.8393 94.135 14.7179 94.8596 14.5137C95.5842 14.3109 96.2453 13.9743 96.8444 13.5066C97.4434 13.0389 97.8809 12.3849 98.1583 11.5434H103.777C103.446 13.9274 102.24 15.7319 100.157 16.9584C98.0741 18.1849 95.0832 18.7975 91.1855 18.7975C86.9207 18.7975 83.7407 18.0607 81.6441 16.5873C79.5476 15.1138 78.5 12.9561 78.5 10.1127V9.15108C78.5 6.30766 79.5476 4.14992 81.6441 2.67648C83.7407 1.20303 86.9207 0.466309 91.1855 0.466309C95.0832 0.466309 98.0727 1.08025 100.157 2.30536C102.24 3.53185 103.446 5.33227 103.777 7.70799H98.1583C97.8809 6.87607 97.4434 6.22626 96.8444 5.75719C96.2453 5.2895 95.5842 4.95287 94.8596 4.75006C94.135 4.54588 93.4408 4.42447 92.7741 4.38584C92.1075 4.34721 91.5789 4.3279 91.1855 4.3279C90.828 4.3279 90.3518 4.34307 89.757 4.37342C89.1621 4.40377 88.5341 4.49759 87.873 4.65349C87.2119 4.80938 86.5853 5.06462 85.9959 5.42056C85.4066 5.7765 84.9207 6.27179 84.5412 6.90918C84.1616 7.54657 83.9711 8.37159 83.9711 9.38561V9.8671C83.9711 10.8811 84.1616 11.7062 84.5412 12.3435C84.9207 12.9809 85.4066 13.479 85.9959 13.8391C86.5853 14.1991 87.2119 14.4571 87.873 14.613C88.5341 14.7689 89.1621 14.8628 89.757 14.8931C90.3518 14.9207 90.828 14.9359 91.1855 14.9359Z" />
<path d="M130.214 0.907959V4.79576H120.707V18.3823H115.196V4.79576H105.689V0.907959H130.214Z" />
</svg>