<svg xmlns="http://www.w3.org/2000/svg" xmlns:xlink="http://www.w3.org/1999/xlink"><defs>
<clipPath id="clip0_1852_5">
<rect width="230" height="22"/>
</clipPath>

<clipPath id="clip0_1879_43">
<rect width="26" height="26"/>
</clipPath>
</defs><symbol id="arrow-right" viewBox="0 0 14 12">
<path d="M0.398371 6.75H9.99718L5.36115 10.9512L6.51935 12L13.145 6L6.51935 9.53674e-07L5.36115 1.04883L9.99718 5.25H0.398371V6.75Z"/>
</symbol><symbol id="burger-menu-icon" viewBox="0 0 24 24"><g fill="none">
<path d="M4 18L20 18" stroke="#000000" stroke-width="2" stroke-linecap="round"/>
<path d="M4 12L20 12" stroke="#000000" stroke-width="2" stroke-linecap="round"/>
<path d="M4 6L20 6" stroke="#000000" stroke-width="2" stroke-linecap="round"/>
</g></symbol><symbol id="chevron-down" viewBox="0 0 10 6">
<path d="M4.99989 4.50844L8.6708 0.837519C8.8983 0.610019 9.26814 0.610019 9.49564 0.837519C9.72314 1.06502 9.72314 1.43485 9.49564 1.66235L5.4123 5.74569C5.1848 5.97377 4.81497 5.97377 4.58747 5.74569L0.504136 1.66235C0.276636 1.43485 0.276636 1.06502 0.504136 0.837518C0.731636 0.610018 1.10147 0.610018 1.32897 0.837518L4.99989 4.50844Z"/>
</symbol><symbol id="icon-close" viewBox="0 0 20 20"><g fill="none"><path d="M.293 18.291a1 1 0 101.414 1.414L10 11.413l8.292 8.292a1 1 0 101.414-1.414l-8.292-8.292 8.292-8.292A1 1 0 1018.291.293L9.999 8.585 1.707.293A1 1 0 10.293 1.707L8.585 10 .293 18.291z"/></g></symbol><symbol id="like-icon" viewBox="0 0 21 19">
<path d="M19.3341 1.8284C18.247 0.649361 16.7554 0 15.1336 0C13.9214 0 12.8113 0.38324 11.834 1.13898C11.3408 1.52046 10.894 1.98717 10.5 2.53191C10.1062 1.98734 9.65918 1.52046 9.16587 1.13898C8.18871 0.38324 7.07856 0 5.86636 0C4.24464 0 2.75285 0.649361 1.66578 1.8284C0.591682 2.99366 0 4.58558 0 6.31112C0 8.08713 0.661858 9.71285 2.08282 11.4275C3.35399 12.9613 5.18095 14.5182 7.29662 16.3212C8.01904 16.9369 8.83791 17.6348 9.68818 18.3782C9.9128 18.575 10.201 18.6833 10.5 18.6833C10.7988 18.6833 11.0872 18.575 11.3115 18.3785C12.1618 17.635 12.9811 16.9367 13.7039 16.3207C15.8192 14.5181 17.6462 12.9613 18.9173 11.4273C20.3383 9.71285 21 8.08713 21 6.31096C21 4.58558 20.4083 2.99366 19.3341 1.8284Z"/>
</symbol><symbol id="main-logo-short" viewBox="0 0 131 19">
<path d="M24.5657 0.907959V4.79576H15.0588V18.3823H9.54765V4.79576H0.0407715V0.907959H24.5657Z"/>
<path d="M44.9403 0.907959C46.1383 0.907959 47.2287 1.19216 48.2127 1.75919C49.1955 2.3276 49.9808 3.08777 50.566 4.0411C51.1512 4.99442 51.4438 6.0526 51.4438 7.21286C51.4438 8.37451 51.1512 9.43407 50.566 10.3915C49.9808 11.349 49.1955 12.1106 48.2127 12.6734C47.2287 13.2363 46.1383 13.5178 44.9403 13.5178H32.6702V18.381H27.1729V0.907959H27.4144H32.6702H44.9403ZM43.4372 9.64377C44.126 9.64377 44.7153 9.4051 45.2067 8.92912C45.698 8.45315 45.9437 7.8806 45.9437 7.21286C45.9437 6.54512 45.698 5.97396 45.2067 5.4966C44.7153 5.02063 44.1246 4.78196 43.4372 4.78196H32.6688V9.64515H43.4372V9.64377Z"/>
<path d="M68.2851 0.907959L77.9535 18.381H71.8391L69.9483 14.7401H58.6043L56.7134 18.381H50.5991L60.2675 0.907959H68.2851ZM68.1098 11.1917L64.2742 3.75551L60.4262 11.1917H68.1098Z"/>
<path d="M91.1855 14.9359C91.5789 14.9359 92.1089 14.9165 92.7741 14.8779C93.4394 14.8393 94.135 14.7179 94.8596 14.5137C95.5842 14.3109 96.2453 13.9743 96.8444 13.5066C97.4434 13.0389 97.8809 12.3849 98.1583 11.5434H103.777C103.446 13.9274 102.24 15.7319 100.157 16.9584C98.0741 18.1849 95.0832 18.7975 91.1855 18.7975C86.9207 18.7975 83.7407 18.0607 81.6441 16.5873C79.5476 15.1138 78.5 12.9561 78.5 10.1127V9.15108C78.5 6.30766 79.5476 4.14992 81.6441 2.67648C83.7407 1.20303 86.9207 0.466309 91.1855 0.466309C95.0832 0.466309 98.0727 1.08025 100.157 2.30536C102.24 3.53185 103.446 5.33227 103.777 7.70799H98.1583C97.8809 6.87607 97.4434 6.22626 96.8444 5.75719C96.2453 5.2895 95.5842 4.95287 94.8596 4.75006C94.135 4.54588 93.4408 4.42447 92.7741 4.38584C92.1075 4.34721 91.5789 4.3279 91.1855 4.3279C90.828 4.3279 90.3518 4.34307 89.757 4.37342C89.1621 4.40377 88.5341 4.49759 87.873 4.65349C87.2119 4.80938 86.5853 5.06462 85.9959 5.42056C85.4066 5.7765 84.9207 6.27179 84.5412 6.90918C84.1616 7.54657 83.9711 8.37159 83.9711 9.38561V9.8671C83.9711 10.8811 84.1616 11.7062 84.5412 12.3435C84.9207 12.9809 85.4066 13.479 85.9959 13.8391C86.5853 14.1991 87.2119 14.4571 87.873 14.613C88.5341 14.7689 89.1621 14.8628 89.757 14.8931C90.3518 14.9207 90.828 14.9359 91.1855 14.9359Z"/>
<path d="M130.214 0.907959V4.79576H120.707V18.3823H115.196V4.79576H105.689V0.907959H130.214Z"/>
</symbol><symbol id="main-logo" viewBox="0 0 230 22">
<g clip-path="url(#clip0_1852_5)">
<path d="M24.5657 2.90771V6.79551H15.0588V20.3821H9.54765V6.79551H0.0407715V2.90771H24.5657Z"/>
<path d="M44.9403 2.90771C46.1383 2.90771 47.2287 3.19192 48.2127 3.75895C49.1955 4.32736 49.9808 5.08753 50.566 6.04085C51.1512 6.99418 51.4438 8.05235 51.4438 9.21262C51.4438 10.3743 51.1512 11.4338 50.566 12.3913C49.9808 13.3488 49.1955 14.1103 48.2127 14.6732C47.2287 15.2361 46.1383 15.5175 44.9403 15.5175H32.6702V20.3807H27.1729V2.90771H27.4144H32.6702H44.9403ZM43.4372 11.6435C44.126 11.6435 44.7153 11.4049 45.2067 10.9289C45.698 10.4529 45.9437 9.88036 45.9437 9.21262C45.9437 8.54488 45.698 7.97371 45.2067 7.49636C44.7153 7.02039 44.1246 6.78171 43.4372 6.78171H32.6688V11.6449H43.4372V11.6435Z"/>
<path d="M68.2851 2.90771L77.9535 20.3807H71.8391L69.9483 16.7399H58.6043L56.7134 20.3807H50.5991L60.2675 2.90771H68.2851ZM68.1098 13.1915L64.2742 5.75527L60.4262 13.1915H68.1098Z"/>
<path d="M91.1855 16.9359C91.5789 16.9359 92.1089 16.9165 92.7741 16.8779C93.4394 16.8393 94.135 16.7179 94.8596 16.5137C95.5842 16.3109 96.2453 15.9743 96.8444 15.5066C97.4434 15.0389 97.8809 14.3849 98.1583 13.5434H103.777C103.446 15.9274 102.24 17.7319 100.157 18.9584C98.0741 20.1849 95.0832 20.7975 91.1855 20.7975C86.9207 20.7975 83.7407 20.0607 81.6441 18.5873C79.5476 17.1138 78.5 14.9561 78.5 12.1127V11.1511C78.5 8.30766 79.5476 6.14992 81.6441 4.67648C83.7407 3.20303 86.9207 2.46631 91.1855 2.46631C95.0832 2.46631 98.0727 3.08025 100.157 4.30536C102.24 5.53185 103.446 7.33227 103.777 9.70799H98.1583C97.8809 8.87607 97.4434 8.22626 96.8444 7.75719C96.2453 7.2895 95.5842 6.95287 94.8596 6.75006C94.135 6.54588 93.4408 6.42447 92.7741 6.38584C92.1075 6.34721 91.5789 6.3279 91.1855 6.3279C90.828 6.3279 90.3518 6.34307 89.757 6.37342C89.1621 6.40377 88.5341 6.49759 87.873 6.65349C87.2119 6.80938 86.5853 7.06462 85.9959 7.42056C85.4066 7.7765 84.9207 8.27179 84.5412 8.90918C84.1616 9.54657 83.9711 10.3716 83.9711 11.3856V11.8671C83.9711 12.8811 84.1616 13.7062 84.5412 14.3435C84.9207 14.9809 85.4066 15.479 85.9959 15.8391C86.5853 16.1991 87.2119 16.4571 87.873 16.613C88.5341 16.7689 89.1621 16.8628 89.757 16.8931C90.3518 16.9207 90.828 16.9359 91.1855 16.9359Z"/>
<path d="M130.214 2.90771V6.79551H120.707V20.3821H115.196V6.79551H105.689V2.90771H130.214Z"/>
<path d="M142.31 2.57666H141.552V20.3352H142.31V2.57666Z"/>
<path d="M153.434 5.89789C153.434 4.95836 153.668 4.2313 154.134 3.71807C154.601 3.20485 155.233 2.94824 156.029 2.94824C156.675 2.94824 157.219 3.12069 157.661 3.46422C158.102 3.80913 158.366 4.30028 158.451 4.93905L157.547 5.02458C157.476 4.58724 157.302 4.25475 157.026 4.02987C156.75 3.80361 156.417 3.69048 156.029 3.69048C155.527 3.69048 155.125 3.88639 154.823 4.27683C154.522 4.66726 154.37 5.20808 154.37 5.89651C154.37 6.58495 154.522 7.12576 154.828 7.51619C155.133 7.90663 155.541 8.10254 156.05 8.10254C156.451 8.10254 156.791 7.98251 157.067 7.74246C157.343 7.5024 157.521 7.16025 157.6 6.71463L158.504 6.79051C158.418 7.44307 158.152 7.9494 157.707 8.3081C157.263 8.6668 156.71 8.84616 156.05 8.84616C155.238 8.84616 154.601 8.5923 154.134 8.08184C153.668 7.57276 153.434 6.84432 153.434 5.89789Z"/>
<path d="M160.044 3.07764H164.005V8.71618H163.058V3.85161H160.883C160.861 4.16064 160.834 4.58695 160.798 5.1319C160.769 5.66306 160.745 6.0466 160.727 6.28389C160.709 6.52119 160.679 6.81506 160.636 7.16686C160.593 7.51867 160.542 7.76561 160.486 7.90909C160.428 8.05258 160.349 8.20848 160.248 8.37679C160.148 8.54511 160.026 8.65686 159.883 8.71067C159.739 8.76447 159.567 8.79068 159.366 8.79068C159.259 8.79068 159.104 8.77688 158.904 8.74791V7.99464C158.976 8.00154 159.061 8.00567 159.162 8.00567C159.319 8.00567 159.445 7.93807 159.539 7.80149C159.631 7.6649 159.709 7.39449 159.771 6.98888C159.832 6.58327 159.873 6.22595 159.895 5.91829C159.917 5.60926 159.945 5.07534 159.981 4.31516C160.008 3.78401 160.029 3.3715 160.044 3.07764Z"/>
<path d="M169.345 3.07764H170.357L168.258 9.36185C168.064 9.98544 167.834 10.4145 167.569 10.6477C167.304 10.8808 166.901 10.9981 166.363 10.9981C166.183 10.9981 165.975 10.9871 165.739 10.9664V10.2352C165.997 10.249 166.187 10.2572 166.309 10.2572C166.603 10.2572 166.825 10.1855 166.977 10.042C167.127 9.89852 167.268 9.62536 167.396 9.22389L167.558 8.71756H167.031L164.9 3.07901H165.933L167.786 8.34092L169.345 3.07764Z"/>
<path d="M179.077 8.7161H177.915L176.02 6.23H175.32V8.7161H174.394V6.23H173.694L171.799 8.7161H170.637L172.984 5.78852L170.723 3.07617H171.842L173.661 5.48638H174.393V3.07755H175.319V5.48777H176.05L177.87 3.07755H178.989L176.728 5.7899L179.077 8.7161Z"/>
<path d="M182.35 3.25015C183.096 3.25015 183.7 3.50124 184.158 4.00342C184.617 4.50561 184.847 5.18715 184.847 6.04804C184.847 6.91582 184.608 7.60012 184.13 8.09817C183.653 8.59759 183.005 8.84592 182.187 8.84592C180.406 8.84592 179.518 7.65116 179.518 5.26303C179.518 4.00756 179.693 3.0501 180.045 2.38926C180.397 1.72979 180.971 1.31728 181.767 1.15173C181.918 1.11586 182.074 1.0855 182.235 1.06067C182.397 1.03584 182.569 1.01239 182.751 0.990313C182.934 0.968239 183.073 0.950302 183.165 0.936506C183.639 0.864765 184.012 0.775092 184.285 0.66748V1.40972C184.092 1.53113 183.758 1.62908 183.284 1.70082C183.177 1.716 183.011 1.73669 182.789 1.76566C182.566 1.79464 182.38 1.81947 182.228 1.84154C181.934 1.87741 181.685 1.94364 181.48 2.04021C181.276 2.13678 181.076 2.2913 180.883 2.50239C180.689 2.71347 180.535 3.02113 180.42 3.4226C180.306 3.82407 180.23 4.3235 180.194 4.91812C180.344 4.39524 180.605 3.98549 180.975 3.69163C181.348 3.39776 181.805 3.25015 182.35 3.25015ZM182.188 8.10368C182.72 8.10368 183.139 7.91881 183.448 7.54907C183.758 7.17933 183.911 6.67991 183.911 6.04804C183.911 5.41617 183.756 4.91674 183.448 4.547C183.139 4.17726 182.72 3.99238 182.188 3.99238C181.65 3.99238 181.226 4.17726 180.918 4.547C180.609 4.91674 180.456 5.41754 180.456 6.04804C180.456 6.67991 180.611 7.17933 180.918 7.54907C181.228 7.91881 181.651 8.10368 182.188 8.10368Z"/>
<path d="M185.602 7.24263C185.602 6.23136 186.341 5.65329 187.82 5.50981L189.499 5.3484V4.81034C189.499 4.45854 189.386 4.17433 189.16 3.95497C188.933 3.73561 188.602 3.63076 188.165 3.63766C187.763 3.63766 187.433 3.72871 187.174 3.9122C186.916 4.09569 186.775 4.37024 186.754 4.73584H185.882C185.904 4.12604 186.122 3.67628 186.539 3.38518C186.954 3.09408 187.497 2.94922 188.165 2.94922C188.904 2.94922 189.468 3.12443 189.855 3.47624C190.243 3.82804 190.436 4.33299 190.436 4.99383V8.71745H189.575V7.5558C189.396 7.96417 189.122 8.28149 188.757 8.50775C188.391 8.73401 187.945 8.84714 187.422 8.84714C186.819 8.84714 186.365 8.69814 186.06 8.40014C185.753 8.10214 185.602 7.71584 185.602 7.24263ZM186.539 7.20952C186.539 7.48958 186.635 7.7186 186.83 7.89795C187.025 8.07731 187.314 8.16698 187.702 8.16698C188.254 8.16698 188.693 7.99315 189.016 7.64548C189.339 7.29781 189.501 6.84805 189.501 6.29482V5.94991L187.929 6.11133C187.001 6.19825 186.539 6.56385 186.539 7.20952Z"/>
<path d="M153.757 19.7533V14.1147H154.704V16.4932H157.622V14.1147H158.559V19.7533H157.622V17.2672H154.704V19.7533H153.757Z"/>
<path d="M159.667 16.9346C159.667 15.973 159.909 15.2418 160.393 14.7396C160.878 14.2374 161.522 13.9863 162.326 13.9863C163.151 13.9863 163.78 14.2416 164.215 14.7506C164.648 15.2597 164.866 16.0351 164.866 17.0753V17.205H160.614C160.65 17.8507 160.828 18.3446 161.147 18.6853C161.466 19.0261 161.884 19.1972 162.401 19.1972C163.133 19.1972 163.633 18.8744 163.898 18.2287L164.791 18.2825C164.64 18.7847 164.36 19.1779 163.951 19.4607C163.543 19.7435 163.025 19.8856 162.401 19.8856C161.562 19.8856 160.896 19.6359 160.404 19.1379C159.913 18.6371 159.667 17.9031 159.667 16.9346ZM160.625 16.5786H163.931C163.924 15.9909 163.775 15.526 163.484 15.1852C163.192 14.8445 162.807 14.6734 162.327 14.6734C161.853 14.6734 161.462 14.8362 161.154 15.1631C160.845 15.4901 160.668 15.962 160.625 16.5786Z"/>
<path d="M170.336 18.9794H170.993V21.271H170.1V19.7534H166.236V21.271H165.343V18.9794H165.762C165.848 18.7932 165.922 18.5683 165.983 18.3061C166.044 18.044 166.098 17.637 166.145 17.0852C166.192 16.5333 166.223 16.1263 166.241 15.8642C166.259 15.6021 166.294 15.0199 166.343 14.1162H170.338V18.9794H170.336ZM169.388 18.9794V14.8902H167.159C167.029 16.7334 166.926 17.8785 166.847 18.3227C166.796 18.5807 166.74 18.8001 166.675 18.9794H169.388Z"/>
<path d="M174.932 16.8478C176.038 16.9485 176.59 17.4079 176.59 18.2247C176.59 18.6689 176.429 19.0359 176.106 19.3228C175.783 19.6098 175.266 19.7533 174.556 19.7533H171.896V14.1147H174.426C175.079 14.1147 175.574 14.2444 175.911 14.5024C176.248 14.7604 176.418 15.1053 176.418 15.5358C176.419 16.267 175.923 16.7043 174.932 16.8478ZM172.844 14.8253V16.5691H174.351C174.731 16.5691 175.014 16.4905 175.196 16.3318C175.38 16.1745 175.471 15.9621 175.471 15.6972C175.471 15.1164 175.08 14.8253 174.298 14.8253H172.844ZM174.448 19.0442C175.244 19.0442 175.643 18.7324 175.643 18.1074C175.643 17.4976 175.226 17.1927 174.394 17.1927H172.844V19.0442H174.448Z"/>
<path d="M181.252 14.1147H182.663V19.7533H181.759V14.7921L179.132 19.7533H177.711V14.1147H178.626V19.0759L181.252 14.1147Z"/>
<path d="M191.91 19.7532H190.748L188.853 17.2671H188.154V19.7532H187.227V17.2671H186.528L184.633 19.7532H183.47L185.817 16.8256L183.556 14.1133H184.675L186.495 16.5235H187.226V14.1147H188.152V16.5249H188.884L190.703 14.1147H191.822L189.561 16.827L191.91 19.7532Z"/>
<path d="M196.259 14.1147H197.67V19.7533H196.766V14.7921L194.139 19.7533H192.718V14.1147H193.633V19.0759L196.259 14.1147Z"/>
<path d="M204.28 14.1147H205.852V19.7533H204.937V14.7715L203.064 19.7533H201.88L200.018 14.7715V19.7533H199.103V14.1147H200.686L202.484 19.2373L204.28 14.1147Z"/>
<path d="M207.688 19.0923C207.203 18.5653 206.96 17.8452 206.96 16.9346C206.96 16.024 207.203 15.3039 207.688 14.7769C208.172 14.2498 208.819 13.9863 209.631 13.9863C210.442 13.9863 211.088 14.2498 211.569 14.7769C212.049 15.3039 212.291 16.024 212.291 16.9346C212.291 17.8452 212.05 18.5653 211.569 19.0923C211.088 19.6194 210.442 19.8829 209.631 19.8829C208.819 19.8829 208.172 19.6194 207.688 19.0923ZM208.365 15.3315C208.053 15.7329 207.897 16.2682 207.897 16.9346C207.897 17.6023 208.053 18.1363 208.365 18.5377C208.677 18.9392 209.1 19.1406 209.631 19.1406C210.154 19.1406 210.574 18.9392 210.886 18.5377C211.197 18.1363 211.353 17.601 211.353 16.9346C211.353 16.2669 211.197 15.7329 210.886 15.3315C210.574 14.93 210.155 14.7286 209.631 14.7286C209.1 14.7286 208.677 14.9286 208.365 15.3315Z"/>
<path d="M213.074 16.9345C213.074 15.995 213.308 15.2679 213.774 14.7547C214.241 14.2415 214.873 13.9849 215.669 13.9849C216.315 13.9849 216.859 14.1573 217.301 14.5008C217.742 14.8458 218.006 15.3369 218.092 15.9757L217.187 16.0612C217.116 15.6239 216.942 15.2914 216.666 15.0665C216.39 14.8402 216.057 14.7271 215.669 14.7271C215.167 14.7271 214.765 14.923 214.463 15.3134C214.162 15.7039 214.01 16.2447 214.01 16.9331C214.01 17.6216 214.162 18.1624 214.468 18.5528C214.774 18.9433 215.181 19.1392 215.69 19.1392C216.092 19.1392 216.431 19.0191 216.707 18.7791C216.983 18.539 217.161 18.1969 217.24 17.7513L218.144 17.8271C218.058 18.4797 217.792 18.986 217.348 19.3447C216.903 19.7034 216.35 19.8828 215.69 19.8828C214.878 19.8828 214.241 19.6289 213.774 19.1185C213.308 18.6094 213.074 17.8809 213.074 16.9345Z"/>
<path d="M218.587 14.8901V14.1147H223.346V14.8901H221.44V19.7547H220.493V14.8901H218.587Z"/>
<path d="M227.823 14.1147H229.234V19.7533H228.33V14.7921L225.703 19.7533H224.282V14.1147H225.197V19.0759L227.823 14.1147Z"/>
</g>

</symbol><symbol id="vk-icon" viewBox="0 0 26 26">
<g clip-path="url(#clip0_1879_43)">
<path d="M25.8622 18.9799C25.8307 18.912 25.8013 18.8558 25.7741 18.8107C25.323 17.9982 24.4609 17.001 23.1885 15.8187L23.1616 15.7917L23.1481 15.7784L23.1345 15.7648H23.1209C22.5434 15.2143 22.1777 14.8441 22.0245 14.6546C21.7443 14.2936 21.6815 13.9281 21.8347 13.5579C21.9429 13.2781 22.3493 12.6874 23.053 11.7847C23.4232 11.3064 23.7163 10.923 23.9328 10.6341C25.4942 8.55833 26.1712 7.23187 25.9635 6.65422L25.8828 6.51923C25.8286 6.43796 25.6888 6.36362 25.4634 6.29582C25.2375 6.22816 24.9488 6.21697 24.5968 6.26206L20.6982 6.28899C20.635 6.26661 20.5448 6.2687 20.4274 6.29582C20.31 6.32294 20.2513 6.33655 20.2513 6.33655L20.1835 6.37045L20.1296 6.41118C20.0845 6.43811 20.0348 6.48547 19.9806 6.55318C19.9267 6.62065 19.8816 6.69983 19.8456 6.79006C19.4211 7.88206 18.9385 8.89734 18.3969 9.83586C18.063 10.3955 17.7563 10.8805 17.4762 11.2911C17.1965 11.7017 16.9619 12.0041 16.7725 12.198C16.5829 12.3921 16.4117 12.5475 16.258 12.665C16.1045 12.7825 15.9873 12.8321 15.9062 12.814C15.8249 12.7958 15.7483 12.7778 15.6758 12.7598C15.5496 12.6785 15.448 12.568 15.3714 12.4281C15.2945 12.2882 15.2427 12.1122 15.2157 11.9001C15.1887 11.6879 15.1728 11.5053 15.1683 11.3518C15.164 11.1985 15.166 10.9817 15.1751 10.702C15.1845 10.4221 15.1887 10.2327 15.1887 10.1334C15.1887 9.79044 15.1954 9.41819 15.2088 9.01659C15.2225 8.61499 15.2335 8.29679 15.2428 8.06238C15.252 7.82772 15.2563 7.57946 15.2563 7.31774C15.2563 7.05601 15.2403 6.85075 15.2088 6.70178C15.1777 6.55299 15.13 6.40857 15.0671 6.26855C15.0038 6.12868 14.9111 6.02048 14.7896 5.94367C14.6677 5.86695 14.5163 5.80607 14.3361 5.76084C13.8577 5.65259 13.2486 5.59404 12.5084 5.58493C10.8299 5.56692 9.75136 5.67531 9.27305 5.90996C9.08353 6.0091 8.91204 6.14456 8.7587 6.31592C8.59621 6.51454 8.57355 6.62293 8.69085 6.64076C9.23241 6.72188 9.61581 6.91595 9.84145 7.22277L9.92277 7.38535C9.98602 7.50265 10.0492 7.71033 10.1124 8.00809C10.1755 8.30585 10.2162 8.63524 10.2341 8.99606C10.2792 9.65498 10.2792 10.219 10.2341 10.6882C10.1889 11.1576 10.1463 11.5231 10.1055 11.7848C10.0648 12.0465 10.0039 12.2586 9.92277 12.421C9.84145 12.5834 9.78735 12.6827 9.76023 12.7187C9.73316 12.7548 9.71059 12.7775 9.69266 12.7864C9.57536 12.8314 9.45336 12.8543 9.3271 12.8543C9.20065 12.8543 9.04731 12.791 8.86685 12.6646C8.68644 12.5382 8.4992 12.3646 8.30513 12.1434C8.11107 11.9222 7.8922 11.6131 7.64845 11.2161C7.40488 10.819 7.15216 10.3498 6.89043 9.80831L6.67389 9.41563C6.53852 9.16301 6.35361 8.79517 6.11895 8.31244C5.88416 7.82953 5.67663 7.3624 5.49622 6.91116C5.4241 6.72164 5.31576 6.57736 5.17138 6.47808L5.10363 6.43735C5.05858 6.40131 4.98628 6.36305 4.88708 6.32227C4.78775 6.28154 4.6841 6.25234 4.57572 6.23437L0.866543 6.2613C0.487514 6.2613 0.230339 6.34717 0.0949234 6.51866L0.0407289 6.59979C0.0136553 6.64497 0 6.71714 0 6.81647C0 6.91576 0.0270736 7.03761 0.0812681 7.18189C0.622739 8.45449 1.21158 9.68181 1.84778 10.864C2.48399 12.0463 3.03684 12.9986 3.506 13.7201C3.97526 14.4422 4.45358 15.1237 4.94095 15.7643C5.42832 16.4051 5.75093 16.8157 5.90877 16.9961C6.0668 17.1769 6.19093 17.312 6.28116 17.4022L6.61965 17.7271C6.83624 17.9437 7.15429 18.2032 7.57396 18.5054C7.99372 18.8079 8.45842 19.1056 8.96832 19.3992C9.4783 19.6922 10.0716 19.9314 10.7485 20.1164C11.4254 20.3015 12.0841 20.3758 12.7249 20.34H14.2818C14.5975 20.3127 14.8367 20.2134 14.9993 20.0421L15.0531 19.9742C15.0894 19.9204 15.1233 19.8367 15.1546 19.7241C15.1862 19.6113 15.202 19.487 15.202 19.3518C15.1927 18.9638 15.2223 18.6141 15.2898 18.3028C15.3572 17.9916 15.4342 17.7569 15.5202 17.5989C15.6061 17.441 15.7031 17.3078 15.8111 17.1998C15.9193 17.0915 15.9964 17.026 16.0416 17.0034C16.0866 16.9807 16.1225 16.9653 16.1495 16.956C16.3661 16.8839 16.621 16.9537 16.9146 17.166C17.208 17.3781 17.4831 17.64 17.7405 17.9512C17.9977 18.2627 18.3067 18.6122 18.6677 19.0002C19.0288 19.3883 19.3446 19.6768 19.6152 19.8666L19.8859 20.0291C20.0666 20.1375 20.3013 20.2368 20.5901 20.327C20.8785 20.4172 21.1311 20.4397 21.348 20.3946L24.8134 20.3406C25.1561 20.3406 25.4228 20.2838 25.612 20.1712C25.8016 20.0584 25.9142 19.9342 25.9505 19.799C25.9867 19.6637 25.9887 19.5101 25.9574 19.3385C25.9253 19.1673 25.8937 19.0476 25.8622 18.9799Z"/>
</g>

</symbol></svg>